{"title":"I Am 2010 DVDRip.XviD.Ac3.Feel-Free","uid":6079817,"size":964358190,"categoryP":"video","categoryS":"movies","magnet":"?xt=urn:btih:a1aacf566db26ae45b66e4fdd3da509307c1b10f&amp;dn=I+Am+2010+DVDRip.XviD.Ac3.Feel-Free&amp;tr=udp%3A%2F%2Ftracker.openbittorrent.com%3A80&amp;tr=udp%3A%2F%2Fopen.demonii.com%3A1337&amp;tr=udp%3A%2F%2Ftracker.coppersurfer.tk%3A6969&amp;tr=udp%3A%2F%2Fexodus.desync.com%3A6969","seeders":0,"leechers":0,"uploader":"neon","files":-1,"time":1294065761,"description":"Genre:Drama\nLanguage:English\n &lt;a href=&quot; http://www.imdb.com/title/tt1497617/&quot; rel=&quot;nofollow&quot; target=&quot;_NEW&quot;&gt; http://www.imdb.com/title/tt1497617/&lt;/a&gt;\nSource:DVD\nSubtitles:Romana\n\n\nFormat : AVI\nFormat/Info : Audio Video Interleave\nFile size : 917 MiB\nDuration : 1h 27mn\nOverall bit rate : 1 473 Kbps\n\n\nVideo\nCodec ID/Hint : XviD\nDuration : 1h 27mn\nBit rate : 1 016 Kbps\nWidth : 720 pixels\nHeight : 384 pixels\nDisplay aspect ratio : 1.875\nFrame rate : 23.976 fps\nColor space : YUV\nChroma subsampling : 4:2:0\nBit depth : 8 bits\nScan type : Progressive\nBits/(Pixel*Frame) : 0.153\nStream size : 632 MiB (69%)\nWriting library : XviD 1.2.1 (UTC 2008-12-04)\n\nAudio\nID : 1\nFormat : AC-3\nFormat/Info : Audio Coding 3\nMode extension : CM (complete main)\nCodec ID : 2000\nDuration : 1h 27mn\nBit rate mode : Constant\nBit rate : 448 Kbps\nChannel(s) : 6 channels\nChannel positions : Front: L C R, Side: L R, LFE\nSampling rate : 48.0 KHz\nBit depth : 16 bits\nStream size : 279 MiB (30%)\nAlignment : Split accross interleaves\nInterleave, duration : 42 ms (1.00 video frame)\nInterleave, preload duration : 500 ms\n\n\nPlot:\n3500 years ago, God wrote the Ten Commandments. Over time, they were forgotten. It pays to remember... I AM\n &lt;a href=&quot;\nhttp://shareimage.org/images/fwymxez951qp3q12xjrg.png&quot; rel=&quot;nofollow&quot; target=&quot;_NEW&quot;&gt;\nhttp://shareimage.org/images/fwymxez951qp3q12xjrg.png&lt;/a&gt; &lt;a href=&quot;\nhttp://shareimage.org/images/c3vnwr1ooyfnm3w62spd.png&quot; rel=&quot;nofollow&quot; target=&quot;_NEW&quot;&gt;\nhttp://shareimage.org/images/c3vnwr1ooyfnm3w62spd.png&lt;/a&gt; &lt;a href=&quot;\nhttp://shareimage.org/images/7eyjfswiwm5l8uu891b.png&quot; rel=&quot;nofollow&quot; target=&quot;_NEW&quot;&gt;\nhttp://shareimage.org/images/7eyjfswiwm5l8uu891b.png&lt;/a&gt; &lt;a href=&quot;\nhttp://shareimage.org/images/cvj25crix24dnuznswfn.png&quot; rel=&quot;nofollow&quot; target=&quot;_NEW&quot;&gt;\nhttp://shareimage.org/images/cvj25crix24dnuznswfn.png&lt;/a&gt;","torrent":{"xt":"urn:btih:a1aacf566db26ae45b66e4fdd3da509307c1b10f","amp;dn":"I+Am+2010+DVDRip.XviD.Ac3.Feel-Free","amp;tr":["udp%3A%2F%2Ftracker.openbittorrent.com%3A80","udp%3A%2F%2Fopen.demonii.com%3A1337","udp%3A%2F%2Ftracker.coppersurfer.tk%3A6969","udp%3A%2F%2Fexodus.desync.com%3A6969"],"infoHash":"a1aacf566db26ae45b66e4fdd3da509307c1b10f","infoHashBuffer":{"type":"Buffer","data":[161,170,207,86,109,178,106,228,91,102,228,253,211,218,80,147,7,193,177,15]},"announce":[],"urlList":[]}}